<?xml version="1.0" encoding="utf-8"?>
<!-- Generator: Adobe Illustrator 16.0.3, SVG Export Plug-In . SVG Version: 6.00 Build 0)  -->
<!DOCTYPE svg PUBLIC "-//W3C//DTD SVG 1.1//EN" "http://www.w3.org/Graphics/SVG/1.1/DTD/svg11.dtd">
<svg version="1.1" xmlns="http://www.w3.org/2000/svg" xmlns:xlink="http://www.w3.org/1999/xlink" x="0px" y="0px" width="95.2px"
	 height="25.859px" viewBox="0 0 95.2 25.859" enable-background="new 0 0 95.2 25.859" xml:space="preserve">
<g id="Layer_7">
	<path fill="#FE1743" d="M82.846,5.861v19.615h6.282V12.489c1.397-0.728,4.003-1.533,6.072-1.323V5.535
		c-2.49-0.287-5.095,1.169-6.513,2.758l-0.785-2.432H82.846z"/>
</g>
<g id="Layer_6">
	<path fill="#FE1743" d="M74.904,1.149l-5.229,0.364l-0.555,4.54l-3.066,0.19v4.176h2.644v8.409c0,5.096,1.839,7.03,6.896,7.03
		c1.877,0,4.022-0.499,5.095-0.978L80,20.323c-0.556,0.211-1.705,0.498-2.836,0.498c-1.57,0-2.184-0.632-2.184-2.682v-7.72h4.865
		V5.861h-4.941V1.149z"/>
</g>
<g id="Layer_2">
	<path fill="#FE1743" d="M50.184,24.365c1.572,0.785,3.966,1.494,7.107,1.494c5.268,0,7.758-2.356,7.758-5.977
		c0-2.912-1.514-4.635-4.674-5.842l-1.494-0.575c-1.84-0.709-2.738-1.092-2.738-2.011c0-1.035,1.225-1.227,2.162-1.227
		c1.687,0,3.89,0.689,5.308,1.188l0.958-4.539c-2.242-1.149-4.751-1.399-6.646-1.399c-4.694,0-7.664,2.529-7.664,6.417
		c0,2.778,1.477,4.655,4.943,5.9l1.34,0.479c1.342,0.479,2.625,0.861,2.625,1.78c0,0.806-0.957,1.054-2.471,1.054
		c-1.781,0-4.063-0.689-5.307-1.264L50.184,24.365z"/>
</g>
<g id="Layer_3">
	<path fill="#FE1743" d="M48.488,12.854c0-4.291-2.835-7.375-7.911-7.375c-6.129,0-9.846,4.176-9.846,10.382
		c0,5.938,3.678,9.999,9.846,9.999c3.773,0,6.206-1.054,7.432-1.667l-1.322-4.444c-1.169,0.441-2.912,1.073-5.325,1.073
		c-2.567,0-4.156-1.149-4.406-3.869h10.938C48.238,16.032,48.488,14.634,48.488,12.854 M42.474,13.639h-5.459
		c0.23-2.472,1.245-3.602,3.084-3.602C41.995,10.037,42.876,11.55,42.474,13.639"/>
</g>
<g id="Layer_4">
	<path fill="#FE1743" d="M27.791,6.876C27.791,2.203,24.229,0,18.251,0H9.459v25.476h9.405c6.206,0,10.287-3.16,10.287-7.931
		c0-2.91-2.069-5.075-4.291-5.937C26.545,10.612,27.791,8.945,27.791,6.876 M21.279,7.644c0,1.092-0.383,1.991-1.13,2.662h-4.406
		V4.847h2.509C20.225,4.847,21.279,5.919,21.279,7.644 M22.102,17.93c0,1.646-1.168,2.701-3.467,2.701h-2.892v-5.978h2.892
		C20.875,14.653,22.102,15.86,22.102,17.93"/>
</g>
<g id="Layer_5">
	<path fill="#FE1743" d="M0,22.622c0,2.088,1.34,3.236,3.257,3.236c2.164,0,3.6-1.13,3.6-3.582c0-2.087-1.34-3.236-3.256-3.236
		C1.437,19.04,0,20.189,0,22.622"/>
</g>
</svg>
